<svg id="Layer_1" data-name="Layer 1" xmlns="http://www.w3.org/2000/svg" viewBox="0 0 1154 624.1"><title>Khair</title><path d="M746.6,88.3a7.5,7.5,0,0,0-2.4-1.9c-1.4-.7-5,.2-6.1.7a4.1,4.1,0,0,0-1.7,1.2l-1.7.7c-.4.2-.7.7-1.1.9-2.4,1.9-4.8,3.6-7.2,5.3-.4.4-.9,1.2-1.4,1.4-4.5,3.3-8.5,7.3-13,10.7a7.8,7.8,0,0,1-1.5,1.6l-2.6,1.9a5.3,5.3,0,0,1-1.2,1.5l-1.1.7c-1.7,1.4-3.1,3-4.8,4.3l-1.4,1.3c-2.1,1.7-3.8,3.6-6.2,5.3s-1.6,1.9-2.8,2.8-3.6,3.1-5.7,4.8a4.2,4.2,0,0,0-1,1.2c-2.1,1.4-4,3.3-6.2,4.9a22.3,22.3,0,0,0-2.1,2.2c-1.9,1.4-3.6,3.1-5.4,4.5a5,5,0,0,0-1.2,1.4c-2.2,1.4-3.8,3.1-5.7,4.5s-1.7,1.9-2.6,2.6c-8.3,6.2-15.2,13.5-23.5,19.7-1,.7-1.9,1.9-3.1,2.9-7.9,5.7-14.7,12.3-22.6,18-2.1,1.7-3.8,3.6-5.9,5.2-5.5,3.8-10.2,8.1-15.7,12.2-1.4.9-2.6,2.3-4,3.3l-14.2,10.7c-.8.4-1.2,1.1-1.9,1.6-14,9.7-27.3,20.2-41.8,29.4l-6.9,5-4.9,2.9c-2.9,1.8-5.8,4-8.4,5.6s-3.8,2-5.4,3.1a144.1,144.1,0,0,1-15.7,9.3c-1.4.7-2.6,1.6-4,2.4s-1.9.9-2.9,1.4l-.7.7a7.8,7.8,0,0,0-1.4.5,8,8,0,0,1-2.4,1.4l-1.2.5a8.4,8.4,0,0,1-2.4,1.4,12.1,12.1,0,0,0-1.4.5,8.8,8.8,0,0,1-2.3,1.4h-.3a4.8,4.8,0,0,1,1.2-2.8c.3-.5,0-1,.3-1.5s1.4-2.1,1.8-3.1v-.9l1.7-3.3a12.1,12.1,0,0,0,.5-1.4c.2-.8,1.2-2,1.4-2.9a2.5,2.5,0,0,0,.2-1.2,20.5,20.5,0,0,0,1.9-3.3v-1.2c.5-1,1.2-1.9,1.7-3.1a1.5,1.5,0,0,0,.2-.9l1.7-3.1c.2-.5,0-1,.2-1.4a6.3,6.3,0,0,0,1-1.2v-.7c.2-.5.7-1,.9-1.5v-.9a6.9,6.9,0,0,1,1-1.2c.5-1.2.5-1.9.9-3.1a2.9,2.9,0,0,0,1-2.1,20.5,20.5,0,0,1,1.9-3.3,2.3,2.3,0,0,1,.2-1.2c.3-1,1-1.9,1.4-2.9s.3-.9.3-1.4.7-.5.7-1,.2-.7.5-1.1,1.2-2.2,1.4-3.1.7-2.4,1.4-3.6.5-.7.7-1.2a2.5,2.5,0,0,1,.3-1.4,16.5,16.5,0,0,0,1.4-2.6,5.8,5.8,0,0,1,.5-1.4,1.7,1.7,0,0,1,.7-1c5.7-13.3,10.9-26.6,16.8-39.6a35.4,35.4,0,0,0,2.2-6c.2-.4.7-.7.9-1.1V178c.7-1.7,1.9-3.6,2.6-5.2s0-1,.3-1.7c4.5-10,8.5-20.4,13-30.4a2.2,2.2,0,0,1,.2-1.2c0-.4.5-.9.8-1.4a5.6,5.6,0,0,0,.2-1.7,53.6,53.6,0,0,0,2.6-5.4,5,5,0,0,0,.2-1.7c.3-.2.8-.7.8-.9,1.1-2.9,2.1-5.5,3.1-8.3s1.8-4.3,2.6-6.2c4.7-11.9,8.7-23.7,13.2-35.6.3-.5,0-.9.3-1.4l1.7-4.3a3.4,3.4,0,0,0,.2-1.4,242.7,242.7,0,0,0,7.1-23.3v-.7c.7-2.8,1.2-5.9,1.9-8.7V37a3.3,3.3,0,0,1,.5-1.2V34.2a12.9,12.9,0,0,1,0-3.4,16.3,16.3,0,0,0,0-5.4V23.5a4.5,4.5,0,0,1-.5-1.9,4.2,4.2,0,0,1-.3-1.9,12.9,12.9,0,0,1-.6-1.2c-.5-1.2-.5-2.1-1-2.8s-.7-.8-.7-1a2.9,2.9,0,0,1-.7-1.6c-.5-.8-1.4-1.5-1.9-2.2C555.6,2.4,540.9,0,526.9,0c-1,.5-2.7,0-3.6.2s-4.5,0-6.2.5h-1.9l-3.8.7h-1.6c-5.5,1.2-11.7,1.7-16.6,3.1-1.5.2-2.7,0-4.1.5L474.9,8.5c-1.4.5-2.6.5-4.1,1-4,1.4-8.5,2.1-13,3.6-10,3.5-20.2,6.6-29.9,10.2l-1.7.4c-3.5,1.5-7.3,2.6-10.9,4.3-.5,0-.9.3-1.4.3l-1.7.9a3.2,3.2,0,0,0-1.2.2l-9.9,4.3-1.7.2a1.8,1.8,0,0,1-.9.7c-1.2.8-2.4.8-3.8,1.2-3.1,1.5-6.4,3.1-9.8,4.5-1.1.5-2.1.7-3.1,1.2s-.9.8-1.4.8a1.5,1.5,0,0,1-.9.2c-.5.2-.7.7-1,.7-2.6,1.2-5,1.9-7.6,3.1-.4.2-.9.7-1.4.9s-1.7.5-2.6,1-.5.4-.9.7-.7,0-1.2.2l-1,.7a6.8,6.8,0,0,1-1.2.3c-.2.2-.7.7-.9.7a53.2,53.2,0,0,1-5,2.1c-.5.3-.7.7-1.2.7s-.7.3-.9.3-2.2,1.4-3.3,1.9-.8,0-1,.2l-.5.5-1,.2-1.3,1c-1,.4-1.7.4-2.7.9a10.8,10.8,0,0,0-2.6,1.4l-1.9.8a12.6,12.6,0,0,1-2.6,1.4c-.2.2-.7.2-.9.4s-.5.5-.8.5a4.3,4.3,0,0,1-1.2.5c-.2,0-.4.5-.7.5s-.6.2-1.1.2-.3.5-.3.5l-1.2.5a4.1,4.1,0,0,0-1.1.7l-1.2.5c-.3,0-.5.4-.7.4a1.7,1.7,0,0,1-1.2.3c-5.3,3.5-11.7,5.9-16.9,9.2l-1.4.2-2.1,1.7a4.4,4.4,0,0,0-1.5.5c-5.7,3.5-12.1,6.2-17.8,10-.2.2-.7,0-1.1.2s-1.5,1.2-2.2,1.4a3.9,3.9,0,0,1-1.4.5c-3.8,2.6-8.1,4.7-11.9,7.4a2.2,2.2,0,0,0-1.2.2c-.2.2-.4.7-.9.7-5.2,2.8-10.2,5.9-15.4,8.8l-.7.7c-.3.2-.8.2-1.2.5s-2.2,1.6-3.4,2.3-.7.3-1.1.3-.5.7-.8.9a83.4,83.4,0,0,0-12.1,7.4,20.2,20.2,0,0,0-3,1.4c-3.1,1.9-6.2,4-9.3,6.2l-1.2.2c-.2.3-.2.7-.5.7s-1.9.7-2.6,1.2a1.3,1.3,0,0,0-.4.7c-.8.5-1.7.7-2.4,1.2s-.5.5-.5.7a1.8,1.8,0,0,1-1.2.3c0,.2-.2.4-.5.7a9.5,9.5,0,0,0-2.3,1.4.5.5,0,0,0-.5.5l-1,.2-2.3,1.9c-.7.5-1.5.5-2.2,1l-.7.7-2.1,1.1a3.5,3.5,0,0,1-.5.8l-.9.2c-1.2.7-2.4,1.9-3.6,2.6l-.7.2-.7.8a1.8,1.8,0,0,1-1,.2c-.7.5-1.1,1.2-1.9,1.7a35.9,35.9,0,0,1-3.8,2.1,1.3,1.3,0,0,0-.4.7,1.7,1.7,0,0,1-1,.3l-.7.7c-.2.2-.5.2-1,.4l-.4.5a10,10,0,0,1-2.4,1.4,5.2,5.2,0,0,1-1.9,1.4.7.7,0,0,1-.7.3c-.7.5-1.2,1.2-1.9,1.7l-1,.2c-.2.2-.2.5-.4.7s-3.6,2.1-5.3,3.3l-1.6,1.4c-.7.5-1.7.8-2.4,1.2a16.2,16.2,0,0,1-1.9,1.7c-.2,0-.4.2-.9.2a6.1,6.1,0,0,0-.7,1c-.5.4-1.2.4-1.9.9a10.8,10.8,0,0,0-1.9,1.7,17.8,17.8,0,0,0-2.4,1.2,1.1,1.1,0,0,1-.2.7l-1,.2c-.7.5-1.2,1.2-1.9,1.7a17.8,17.8,0,0,1-2.4,1.2c-.2.2-.2.7-.5.9s-2.3,1.2-3.3,1.9-.4.7-.7,1a18.9,18.9,0,0,1-2.1.9c-.3.3-.3.5-.5.7a31.5,31.5,0,0,1-3.3,2.2c-.3.2-.3.4-.5.7s-1.4.7-2.1,1.2a1.7,1.7,0,0,0-.7.9c-.8.5-1.7.7-2.4,1.2a2.3,2.3,0,0,0-1.2,1.2.2.2,0,0,0-.2.2c-.8.5-1.5.7-2.2,1.2s-1.2,1.4-1.9,1.9-1.6.5-2.1,1.2-.2.2-.2.5-1.2.9-1.9,1.2-.3,0-.5.2-1.7,1.4-2.6,2.1l-1.4.7a13.6,13.6,0,0,1-1.7,1.7l-3.1,1.9a13.6,13.6,0,0,1-1.7,1.7c-.2.2-.6,0-.9.2a13.6,13.6,0,0,0-1.7,1.7c-1.1.9-2.3,1.4-3.3,2.1s-.2.5-.5.7-2.3,1.5-3.3,2.4a72.7,72.7,0,0,1-8.5,6.4c-.3.2-.3.5-.5.7a15.4,15.4,0,0,1-3.1,2.1,24.2,24.2,0,0,0-2.8,2.7c-3.6,2.6-6.9,5.4-10.5,8-1.2,1-2.4,2.4-3.5,3.3l-3.4,2.2c-.9.7-1.6,1.9-2.6,2.6L61,243.7l-.7,1c-2.4,1.9-4.3,3.8-6.6,5.7s-2,2.1-3.1,2.8l-3.4,2.9c-.2.2-.4.7-.7.9a12.5,12.5,0,0,0-1.7,1.2,20.9,20.9,0,0,1-1.4,1.7,18,18,0,0,0-3.5,3.1,39.8,39.8,0,0,1-3.6,3.5c-.9.7-2.1,1.9-3.1,2.8s-.2.5-.4.8a16.2,16.2,0,0,0-3.4,3.5c-1.1,1.5-2.8,2.4-3.8,3.8s-1.1,1.2-1.9,1.7-2.3,2.8-3.5,4.5-1.7,1.2-2.1,1.9c-6,8.1-12.6,15.2-16.4,25.6,0,.5-.5,1-.7,1.4V314a4,4,0,0,0-.7,1.8,5.4,5.4,0,0,0-.3,2v1.8a16.1,16.1,0,0,0,1,6c1.9,6.2,6.4,9.5,11.8,12.1.5.2.7.7,1,.7s3.1,1.2,4.5,1.9l1.4.2,1.4.8,2.2.2c3.5,1.2,8,1.9,12.1,2.8,1.2.3,1.9,0,3.1.3,3,.7,7.3.4,10.6,1.4a24.8,24.8,0,0,1,4.6.3,5.9,5.9,0,0,1,2.3,0c3.3.7,7.4.2,10.5.7,1.2.2,2.8-.3,4.2,0s3.6-.3,5.3.2c3.3.7,7.1-.5,10.2.2h3.1c2.8,0,5.4.3,8,.3h2.6a24.1,24.1,0,0,0,3.8,0c.3,0,.5-.3,1,0a44.5,44.5,0,0,0,7.3,0h1.2a24.1,24.1,0,0,0,3.8,0c3.1,0,6.7,0,9.5-.3s5.7.7,8.3,0c.7-.2,1.7.3,2.4,0s2.8.3,3.8,0,.9,0,1.2,0,3.8,0,4,0c2.4-.4,4.7.3,6.6-.2h2.6c2.2,0,5,.5,6.9,0a9.6,9.6,0,0,1,2.4,0h10.2a26.8,26.8,0,0,0,4.1-.2,10.6,10.6,0,0,0,2.5.2c3.4-.7,7.7.2,10.7-.2h2.6c1.7-.3,3.6.2,5.3,0a12.9,12.9,0,0,0,2.8,0,11.6,11.6,0,0,1,3.3-.3c2.4,0,5.3.3,7.6-.2s5.3.5,7.4,0a7.4,7.4,0,0,1,2.1,0c.5.2.7,0,1,0s3,.2,4.2-.2h2.7a48.6,48.6,0,0,0,5.4,0c1.2-.3,2.2.2,3.1,0h15.2a48.4,48.4,0,0,0,5.4,0h3.6c1.9-.5,4.8,0,6.9,0h13.5c11.6-.3,23.3-.3,34.9-.3a9.2,9.2,0,0,1,3.3,0c.7.3,2.2,0,3.1,0s5.4.3,7.6-.2a25.5,25.5,0,0,1,4,.2c1.5-.2,2.9.3,4.5,0a5.9,5.9,0,0,1,2-.2,8.8,8.8,0,0,0,2.3,0c1.7-.3,3.1.2,4.3,0a6.3,6.3,0,0,1,3.1.2l1.4-.2h9.7c1.2-.3,3.1.2,4.5,0s1.2,0,2.2,0h11.6a18.1,18.1,0,0,0,3.3,0c1.4-.5,3.1.2,4.3,0s3.1.2,4.3,0a8.7,8.7,0,0,1,2.8,0h1.4a16,16,0,0,1,3.8,0c3.8-.8,7.6.5,10.9-.3,1.2-.2,2.7.5,4.1.3a7.5,7.5,0,0,1,2.6,0h5.2a3.8,3.8,0,0,1,1.7-.3,8.1,8.1,0,0,0,3.8,0c.9-.2,3.1.8,4,0s1.7,0,1.9.3c-.5,2.6-2.1,4.5-3.1,6.6v1.2c-.4,1.2-1.4,2.1-1.9,3.3-1.4,3.8-3.3,7.1-4.7,10.9a6.5,6.5,0,0,1-1,1.5c-.4,1.2-.4,2.3-1.2,3.3a2.2,2.2,0,0,1-.7.9c-6.1,14.3-13,28-19,42.3a16.4,16.4,0,0,1-1.6,2.6,7.8,7.8,0,0,1-.5,1.4,33.4,33.4,0,0,0-1.6,3.8c-.5,1.2-1.5,2.4-1.9,3.3a1.8,1.8,0,0,1-.3,1.2l-.7,1c-2.6,5.9-5,11.4-7.6,17.1-.2.4-.7.7-.9,1.1l-1.9,4.8c-.5,1.2-1.5,2.1-1.9,3.1a52.6,52.6,0,0,1-2.6,5.9,7.8,7.8,0,0,0-.5,1.4c-2.6,5-5,10-7.4,15.5-.2.4-.7.9-.9,1.4-1.5,3.6-3.1,6.9-4.8,10.4s-4,7.6-5.7,11.4a53.2,53.2,0,0,1-2.1,5c-.7,1.4-1.9,3.1-2.6,4.8-3.6,8.5-7.9,16.8-12.1,25.1-3.1,5.7-5.5,11.6-8.6,17.1-.7,1.2-1.2,2.6-1.9,3.8s-.9,2.6-1.6,3.5a52.6,52.6,0,0,0-3.8,7.9c-.8,1.4-1.7,3.3-2.6,4.7a27.5,27.5,0,0,0-1.5,3.6,106,106,0,0,0-5.4,10c-2.4,4.4-4.8,9.2-7.1,13.7a46.2,46.2,0,0,1-2.9,5.9,23.1,23.1,0,0,0-1.6,4.1c-1.5,3.3-5.7,9.5-1.2,12.6,1.9,1.6,5,1.1,7.3.2a4.5,4.5,0,0,0,1.9-1.4c.3-.3.3-.8.7-1s1-.5,1.2-.9.1-.2.2-.2c3.5-7.9,8.2-15.6,8.2-24.4a9.5,9.5,0,0,1,2.6-6.8l3.5-8.3c.5-.7,1.2-1.9,1.7-2.8,3.8-8.3,7.3-16.6,11.4-24.4a41.8,41.8,0,0,0,2.1-5.3l.7-.9c.3-.7.3-1.2.5-1.7,1.2-2.1,2.3-4.3,3.3-6.4,9.7-22.5,20.9-44.1,30.6-66.7.7-1.7,2.1-3.5,2.9-5.2,4.5-11.9,10.6-22.5,15.2-34.2a2.2,2.2,0,0,1,.7-.9,1.5,1.5,0,0,0,.2-1l1.6-2.8,1.3-3.3a2,2,0,0,1,.7-1,2.5,2.5,0,0,0,.2-1.2,30.1,30.1,0,0,0,1.6-3.1c.5-.9.8-1.9,1.2-2.8a7.5,7.5,0,0,1,1-1.7l1.2-3.1a1.8,1.8,0,0,1,.7-.9v-1c.5-.9,1.2-1.8,1.7-2.8a2.5,2.5,0,0,0,.2-1.2c.5-1.2,1.4-2.3,1.9-3.3,3.8-9,7.8-17.3,11.4-26.1a7.1,7.1,0,0,0,.7-.9c.7-1,.7-2,1.2-3.1s.7-.8.7-1,.7-2.1,1.4-3.6,1.2-1.9,1.4-2.8.7-2.2,1.5-3.3.4-.5.7-1a3.6,3.6,0,0,1,.2-1.4c1.4-2.8,3.1-6.2,4.5-9.3.5-1.2,1.2-3.7,2.4-4.2s2.1,0,3.1,0a4.5,4.5,0,0,1,2.8,0,16.3,16.3,0,0,1,3.8-.3h7.4c1.4.3,3.1-.2,4.3,0h3.3c.9.3,2.3,2.2,3,2.6a10.6,10.6,0,0,0,1.7,1,6.1,6.1,0,0,1,1,1.4c1.1,1,2.3,1.7,3.5,2.6a5.3,5.3,0,0,0,1.2,1.4c4.1,3.1,7.1,7.2,11.4,10.3,1.2.9,2.4,2.8,3.6,3.8a59.2,59.2,0,0,1,4.7,4.2,9.9,9.9,0,0,0,.9,1.5,25.7,25.7,0,0,1,5.5,5.4l.5.2a7.9,7.9,0,0,1,1.2,1.5l1.2.7a5.8,5.8,0,0,0,1.6,1.9,1.2,1.2,0,0,1,.5.5l6.6,6.8a2.9,2.9,0,0,1,1,1.2c.2.5.9.7,1.4,1.2a2,2,0,0,0,.5.9,19.5,19.5,0,0,1,2.8,2.9l1.5,1.4c2.6,3.4,5.9,6,8.5,9.5.5.7,1.7,1.4,2.4,2.4s3.1,3.6,4.5,5.4a8.1,8.1,0,0,1,1.4,1.2,27.5,27.5,0,0,0,2.2,2.6c.2.3.4.5.7.5a19.1,19.1,0,0,0,1.5,2.1l.2.2.6.7.5.6h0l12,13.9c1.2.6,2.8,3,3.4,3.9l1,.9,1.5,2.1,2,2.2a63,63,0,0,1,4.5,5.5c.5.7,1.7,1.4,2.2,2.1,3.3,4.5,7.1,8.3,10.2,12.6,1,1.4,2.4,2.3,3.3,3.5s4.3,5,6.4,7.6c.3.5.7.7,1.2,1.2a155.9,155.9,0,0,0,12.8,14.3h0a6.1,6.1,0,0,0,4.8,1.6h.1c4.6-.9,3.7-3.6,2.3-5.5l-2.1-2.2-1.8-2a17,17,0,0,1-3.5-3.6c-1.4-1.9-3.3-3.3-4.8-5-4.2-5.7-9.5-10.7-13.5-16.3-.7-1-1.6-1.5-2.1-2.4-2.1-2.9-4.5-5.5-6.9-8.5-.7-1-1.9-2-2.8-3.1s-4.1-5-6-7.6-1.7-2.4-2.6-3.5l-.7-.8h0l-14.6-17.6-2.1-2.4a4.8,4.8,0,0,0-.9-1.1c-.2-.5-.7-.7-.9-1s-2.2-2.6-3.1-4a27.2,27.2,0,0,0-2.4-2.4c-2.1-2.8-4.7-5.4-6.9-8.5-.7-1-1.9-1.7-2.5-2.6-4.1-5.5-9.1-10-13.1-15.2l-1.4-1.4c-.8-1-1.5-1.7-2.2-2.7s-.9-.6-1.1-1.1a17.4,17.4,0,0,1-2.5-2.9l-1.3-.9c-2.4-3.4-5.5-6.2-8.1-9.3l-1.7-1.4a2.3,2.3,0,0,0-.9-1.2l-.7-.5a3.3,3.3,0,0,0-1.3-1.4l-.9-.7a2.5,2.5,0,0,0-.7-1.2,4.1,4.1,0,0,1-1.4-1c-2.2-3.3-5.5-5.9-8.3-8.5v-.5l4.5-.2a8.6,8.6,0,0,0,2.4.2,13.1,13.1,0,0,1,2.8,0c1.4-.5,3.3-.2,4.7-.2H520c.9-.3,2.3.2,3.1,0a24.6,24.6,0,0,1,4.7,0h9a17.1,17.1,0,0,0,4.1-.3c.9,0,1.6.3,2.3.3a18.9,18.9,0,0,1,4.1-.3H553c.4,0,1.2-.2,1.6,0a16.8,16.8,0,0,0,5-.2l1.9.2a38.9,38.9,0,0,1,6.9-.2H571c2.8-.7,6.2.2,8.8-.5.7,0,1.4.3,2.1.3l82.5-1.7a20.6,20.6,0,0,0,3.5-.2,19.1,19.1,0,0,1,3.4,0c.9-.2,1.9,0,2.4-.2h2.6a31.4,31.4,0,0,0,5.4-.3h2.6c3-.5,4.9.4,6.2-2a5.5,5.5,0,0,0,.5-2.6c-.7-2.4-2.9-3.6-5.7-2.9h-.2c-1.2.2-2.5,0-3.4.2s-2.9-.2-4.5.3-2.4,0-3.5.2c-3.6.7-92.3,3.3-92.3,3.3-1.6.3-4-.2-5.4,0-3.1,0-6,.3-9.1.3-1.6.2-4-.3-5.9.2a26.4,26.4,0,0,1-5,.3h-1.8c-2,.2-5.5.2-7.9.2h-7.6a9.6,9.6,0,0,0-2.4,0,26.7,26.7,0,0,1-4,0c-3.3,0-6.4,0-9.7.2l-5,.3a5.1,5.1,0,0,0-2.1-.3c-1.2.3-2.4-.2-4.1.3a29.1,29.1,0,0,1-5.9,0l-1.9.2H492.7l-1,.2a5,5,0,0,0-2.6-.2c-1.2.2-5.2.5-6.4,0s-.9-.7-1.4-1.4-1-.7-1.4-1.2l-1.7-1.7a12,12,0,0,1-1.2-.9,3.9,3.9,0,0,0-1.2-1.4c-3.8-2.9-6.6-6.7-10.4-9.3-.5-.7-1.2-1.2-1.7-1.9s-2.6-1.9-4-2.9-.5-.9-.7-1.1-1.9-1-2.2-1.7.5-3.1,1-3.8a30.1,30.1,0,0,0,1.6-3.1v-.7c.5-1.2,1.2-2.3,1.7-3.3s1-3.3,3.1-4.3c4.3-1.9,8.1-4.2,12.1-6.4a97.5,97.5,0,0,0,12.3-6.9c2.2-1.2,4.1-1.9,6-3,4.2-2.9,8.7-5.5,13-8.1,1-.7,1.9-1,2.9-1.7s.9-.9,1.7-1.2.7-.2,1.1-.4,1.2-1.2,1.9-1.7,1.4-.7,2.1-1.2c5.8-4,11.9-7.6,17.6-11.6,7.9-5.2,15.4-10.7,23.3-16.1,13-9.3,25.6-19.3,38.4-28.8.5-.2,1-.9,1.5-1.2l2.1-1.4c.5-.5.7-.9,1.2-1.1,8.5-6.2,16.3-12.9,24.9-19.3l.7-.7,7.8-6.2c1.2-.9,2.4-2.1,3.6-3.1,3.3-2.6,6.4-5.2,9.7-7.5l1.2-1.2c4-3.1,7.8-6.5,11.9-9.5,1.2-1,2.1-2.2,3.3-3.1,7.3-5.2,13.5-11.4,20.9-16.6a3.1,3.1,0,0,1,.9-1.2l4.3-3.3c1-.7,1.7-1.7,2.6-2.4,3.6-2.6,6.9-5.7,10.4-8.3.8-.7,1.5-1.7,2.2-2.2A44.9,44.9,0,0,0,712,121c1.4,0,1.6,2.2,3.5,1.5s1.7-1.2,2.6-1.7a45.2,45.2,0,0,1,5.3-4.3c3.3-2.6,6.1-5.4,9.4-8,1.2-1,2.2-2.4,3.4-3.4a9.3,9.3,0,0,0,2.8-2.3l1.7-1.5a8.1,8.1,0,0,0,1.6-1.6C744.7,97.1,749.9,93,746.6,88.3ZM458.8,337c.4.2.6.7,1.1,1.2l2.2,1.4v.7a32.4,32.4,0,0,1-4.5.2h-7.4c-1.2,0-3.3.3-4-.2h-.3c0-1.9,1.2-3.3,1.9-4.7s.7-2.2,1.2-3.3a10.1,10.1,0,0,0,1.4-2c1,.3.8.7,1.2,1.2s1.2.5,1.7,1a7.5,7.5,0,0,1,1.2,1.4A50.6,50.6,0,0,1,458.8,337Zm-10.7-27.1c0-1.9,4.7-2.6,5.9-3.5h.5c.2,1.2-1.9,5.4-2.9,6.1s-.7-.7-1.2-1.1Zm18-29.4a2,2,0,0,1-.2,1c-1,2.6-2.4,4.9-3.6,7.6v.9a32.2,32.2,0,0,1-1.9,3.3,5.2,5.2,0,0,1-.7,2.2c-.7.9-3.3,1.6-4.5,2.3-3.3,1.5-7.1,2.9-10.5,4.3-1.4.7-3.1.7-4.2,1.4s-1.9-1.2-2.9-1.6c-3.1-1.9-5.9-3.8-8.5-5.7-.7-.5-1.7-.7-2.4-1.2s-1.2-1.2-1.9-1.4a8.4,8.4,0,0,0-1.9-.7l-1.7-1.5-1.6-.5c-.7-.2-1.2-.9-1.9-1.4s-1.2,0-1.7-.2l-2.1-1.4c-.7-.3-1.9-.3-2.6-.8s-.5-.4-.7-.4a8.8,8.8,0,0,0-2.9-.7c-.4-.3-1.2-.5-1.9-1s-1.4,0-2.6-.2a19.4,19.4,0,0,0-2.4-1H398a9.6,9.6,0,0,0-4.5.3c-1.2.2-2.4,0-3.3.2s-1.9,1-2.9,1.7a5.8,5.8,0,0,0-2.1.7c-1.9,1.2-5,5.2-5.5,7.3a5,5,0,0,0-.2,1.7,9.2,9.2,0,0,0,0,5.7c.2,1.2,0,1.9.2,2.6s.7,1.2,1,1.9a18.9,18.9,0,0,0,.9,2.1c.2.5,1,.7,1.2,1.2s.5,1,1,1.5.9.9,1.6,1.4l1.2,1.4c.7.5,1.4.5,2.1,1a29.3,29.3,0,0,0,4.3,2.3,37.5,37.5,0,0,0,6.7,1.4,24.2,24.2,0,0,0,9.4.7h1.7c4.5-.7,9-.9,13-1.9,1.2-.4,2.7-.4,4.1-.9a2.3,2.3,0,0,1,3.8.7c.7.5,1.7.7,2.4,1.2a6.5,6.5,0,0,0,1.1,1.2c.5.4,1,.4,1.5.9s1.2,1.2,1.9,1.5.7.2.9.4.7,1,1.2,1.2,1.2.5,1.7,1,.7.7.9.9a7.5,7.5,0,0,0,2.1,1.2c0,1.4-.7,2.2-.9,3.1a7.8,7.8,0,0,1-.5,1.4,11,11,0,0,1-1.4,2.6,3,3,0,0,0-.2,1.4,5.8,5.8,0,0,0-1,1.2c-.7,1.7-1.2,3.1-1.9,4.5a22.6,22.6,0,0,1-4.5,0H419.1c-1.2.3-2.6-.2-4,0a40.1,40.1,0,0,1-6,0h-2.8a4.5,4.5,0,0,1-2.8,0h-1.2a14.3,14.3,0,0,1-3.6,0H358.6c-2.4,0-5.5.5-7.3,0s-3.4.3-4.6,0a11.6,11.6,0,0,0-3.3.3,17.1,17.1,0,0,1-4-.3,3.8,3.8,0,0,1-1.9.3,4.2,4.2,0,0,0-2.7,0,3,3,0,0,1-2.1-.3,11.2,11.2,0,0,1-3.3.3H317a58,58,0,0,1-5.9,0,10,10,0,0,0-3,0,4.8,4.8,0,0,1-1.7,0c-1.7-.3-3.1.2-4.5,0h-4.8a31.3,31.3,0,0,0-6.8.2c-1,.3-2.9-.2-4.1,0a3.2,3.2,0,0,1-1.2-.2,26.8,26.8,0,0,1-4,.2l-2.1-.2c-2,.5-4.6.2-6.7.2s-2.6.3-3.3,0h-4.3c-1.4-.2-3.1.5-4.7,0a4.8,4.8,0,0,0-1.7,0c-.9.3-2.4,0-3.8,0l-5.2.3a9.6,9.6,0,0,1-2.9-.3,26.9,26.9,0,0,1-6.3.3h-2.9c-1.7-.3-3.3.2-4.8,0h-7.5c-6.2.2-12.2.2-18.1.2H157.4a30.5,30.5,0,0,1-4.3,0c-1.2-.2-2.2.2-3.3,0l-1.5.2a3.9,3.9,0,0,1-1.6-.2,18.2,18.2,0,0,1-3.3,0l-3.6.2H128.9a30,30,0,0,1-5.2,0c-2.2-.4-4.6.3-6.4-.2l-1.3.2a25.5,25.5,0,0,1-4-.2H96.6a35.6,35.6,0,0,1-6.6-.2H84.5c-1.4-.3-3.6.2-5,0-3.8-1-8.8,0-12.6-.8H61.7c-3.1-.7-6.4-.2-9.5-.9l-2.8-.2a46,46,0,0,1-5.7-.8H42c-4.5-1.1-9.7-1.4-14-2.6-1.2-.4-2.1-.2-3.3-.7-8.6-2.6-16.6-5-19-14.2-.5-1.7.2-4.5.7-5.7s0-1.9.5-2.9l.7-1.1c2.6-7.9,7.4-13.8,11.9-19.7.9-1.5,2.1-2.4,3-3.8,3.4-4.3,7.4-8.4,11.2-12.4s6-6.6,9.5-9.2a11.2,11.2,0,0,1,1.6-1.9c1.5-1.4,2.9-2.6,4.3-4.1A13.4,13.4,0,0,1,52,258a32.7,32.7,0,0,1,2.4-2.7c1.9-1.4,3.3-2.8,4.9-4a14.5,14.5,0,0,0,1.7-1.9c2.1-1.6,4-3.3,5.9-5s1.7-1.9,2.6-2.6a68.8,68.8,0,0,0,6.7-5.4c.5-.5,1.4-.7,1.9-1.2s1.2-1.4,1.9-1.9,2.6-1.9,4-3.1l3.6-3.1c.7-.7,1.7-1,2.4-1.6l1.4-1.5c.4-.7,1.4-.9,2.1-1.4l1.4-1.6c2.9-2,5.3-3.9,8.1-5.8a8.7,8.7,0,0,0,1.7-1.6,3.6,3.6,0,0,1,1.9-1.2c1.2-1,2.1-2.1,3.1-2.9l2.1-1.2a13.6,13.6,0,0,1,1.7-1.6c12.5-8.6,24.1-18.3,37-26.8.7-.5,1.1-1.2,1.9-1.7a16.3,16.3,0,0,0,1.9-.9,3.6,3.6,0,0,1,.7-1l2.1-1.2c.3-.2.5-.4.5-.7,2.1-1.4,4.3-2.6,6.2-4s1.4-1.2,2.1-1.4.4-.3.7-.5l.7-.7c.7-.5,1.5-.7,2.1-1.2l.8-.7,3.5-2.1c0-.3.3-.5.5-.8l1.2-.4c.5-.3.9-1,1.6-1.5l5-2.8c.3-.3.3-.5.5-.7l1.2-.5c.7-.5,1.2-1.2,1.9-1.7a41.8,41.8,0,0,0,5.4-3.5,1.8,1.8,0,0,1,1.2-.5c.8-.5,1.2-1.2,1.9-1.6s.5,0,.7-.3l.7-.7h.8l.7-1,2.3-1.1c.3-.3.3-.5.3-.5l1.2-.5c1.2-.7,2.4-1.9,3.5-2.6s1.5-.7,2.2-1.2l.7-.7c.7-.5,1.4-.5,2.1-1s.7-.7,1-.9l.9-.2a12.5,12.5,0,0,1,1.9-1.5c.2-.2.7-.2,1-.4l.4-.5a17.4,17.4,0,0,1,2.7-1.4l2.1-1.7c.7-.5,1.7-.7,2.4-1.2l.7-.7.9-.2c.7-.5,1.2-1.2,1.9-1.7l1.2-.2a5.2,5.2,0,0,1,1.9-1.4c.2-.3.7-.3,1-.5l2.1-1.7c2.8-1.4,5.2-3.1,7.8-4.7.8-.5,1.7-.5,2.6-1.2,6.9-4.5,14.5-8.6,21.4-13.1a2.5,2.5,0,0,0,1.2-.2l2.1-1.7,1.2-.2c2.8-1.9,5.9-3.6,8.8-5.2.2-.2.7-.2.9-.5s.5-.5.7-.7,1,0,1.2-.2.5-.5.7-.5.7-.3,1-.5.5-.5.7-.7,1,0,1.2-.2l.7-.8c.5-.2.7,0,.9-.2,6.5-4,13.6-7.1,20-11.1.5,0,.9-.3,1.4-.3a23.4,23.4,0,0,1,4.3-2.6,3.2,3.2,0,0,0,1.2-.2A75.8,75.8,0,0,1,322,75.7c.3-.2.5-.7.8-.7a14.2,14.2,0,0,0,1.6-.5,16.4,16.4,0,0,1,5.3-2.6l.7-.7,1.1-.5c.3,0,.5-.2.8-.4a19.4,19.4,0,0,1,3-1.3c1-.4,2.2-1.4,3.1-1.8s1,0,1.4-.3.5-.7,1-.7l2.6-1.2c.5-.2,1-.7,1.4-.7a1.1,1.1,0,0,1,.7-.2l2.9-1.7a2.7,2.7,0,0,0,1.2-.2,32.7,32.7,0,0,0,3.1-1.7c5.2-2.4,10.2-4.5,15.6-6.9.3,0,.7-.4,1-.7a3.6,3.6,0,0,0,1.4-.2,2.9,2.9,0,0,1,1-.7c.4-.3.7,0,1.1-.3s.5-.4.7-.4a10.9,10.9,0,0,1,1.7-.5c.3,0,.5-.5.5-.5s1.2-.2,1.6-.5.5-.4.7-.4a8.8,8.8,0,0,1,1.5-.5c.9-.3,2.1-1,3.1-1.4a2.2,2.2,0,0,1,1.4-.3c14.9-6.6,31.1-12.6,47.2-18,2.6-.9,5.2-1.2,7.8-2.2,8.1-2.5,16.9-4.9,25.7-7.3a11.1,11.1,0,0,0,2.8-.5c7.1-1.9,15-2.8,22.6-4.5h1.2c3-.9,7.1-.9,10.4-1.6h1.6c3.6-.8,7.9-.3,11.5-1,.9-.2,4.7.2,5.4-.2s2.1-.3,2.9,0,4.7,0,6.4.4h1.6c2.2.5,5,.5,6.9,1a6.8,6.8,0,0,0,1.9.2,18.9,18.9,0,0,1,3.8,1.2h1.2c4.5,1.7,8.3,4,10.2,8.3,2.9,6.6,1.2,19-.5,25.6a16.5,16.5,0,0,1-.4,3.1c-.8,2.6-1.2,5.5-2,8.1-.4,1-.2,1.9-.7,2.8-.7,2.4-1.4,5-2.1,7.2s-.5,2.8-.9,4.2c-2.9,8.3-5.5,16.9-8.3,25.5-.8,2.3-2,4.9-2.9,7.1-1.7,4.5-2.9,8.7-4.5,12.8a42.6,42.6,0,0,0-2.2,6.6c-.4,1-1.1,2.4-1.6,3.6s-.2,1.2-.5,1.6a16.3,16.3,0,0,0-1.4,3.4,2.3,2.3,0,0,0-.2,1.2c-.7,2.1-1.9,4.2-2.7,6.1a2.5,2.5,0,0,0-.2,1.2c-.5,1.2-1.4,2.6-1.9,3.8s-.5,2.6-1.2,3.8c-1.6,4.3-3.6,8.8-5.2,12.8s-2.4,6.2-3.8,9a13.3,13.3,0,0,1-.5,1.9c-.4,1-1.2,2.4-1.6,3.6s-.3.9-.3,1.4c-1.2,2.4-2.3,5.2-3.5,7.6,0,.7-.3,1.2-.3,1.7a61.5,61.5,0,0,0-3.5,7.8c-.5.9-.5,1.9-1,3.1s-.7.9-.9,1.4,0,1-.3,1.4c-2.1,4.1-3.8,8.8-5.7,13.1,0,.5-.4.9-.7,1.4-2.3,5.5-4.5,10.7-6.6,16.4a20.5,20.5,0,0,0-1.9,3.3,2.4,2.4,0,0,1-.3,1.4l-.7,1a43.7,43.7,0,0,1-2.1,5.7c-1,2.3-2.4,5-3.3,7.3a1.9,1.9,0,0,0-.3,1.2,6.2,6.2,0,0,0-.9,1.2c-.5,1.2-.5,2.1-1.2,3.6l-.7.7a21.9,21.9,0,0,1-1.2,3.3c0,.5-.5.7-.7,1a31.8,31.8,0,0,0-.9,3.3l-1,.9c-.5,1.2-.5,2.1-1,3.1a13.1,13.1,0,0,0-.9,1.7,1.5,1.5,0,0,1-.2.9A18.7,18.7,0,0,1,468,276c-.5,1.2-.5,1.9-1,3.1S466.3,280,466.1,280.5Zm-47,28c-.2.2-.2.2-.2.5-8.1,1.9-18.1.5-22.8-3.1a8.2,8.2,0,0,1-3.3-3.6,2.4,2.4,0,0,1,0-2.3c.2-.5.7-.5,1.2-.7,5.4,0,9.5,1.8,13.3,3.5l1.6.5c.7,0,1.2.7,1.7.9s1.6.3,2.1.7a5.9,5.9,0,0,0,1.7,1.2,1.9,1.9,0,0,0,1.2.3l1.1,1.2A7.8,7.8,0,0,1,419.1,308.5Z"/><path d="M799.3,136.5c-.7-3-2.2-3.7-4.7-5s-2.5-1.7-5.8-1.7l-2.2.7a5.4,5.4,0,0,0-1.8,1.5c-.5.5-1.2.8-1.7,1.3s-1.3,1.5-2,2.2l-1,1a15,15,0,0,1-1.5,2.3,2.4,2.4,0,0,0-1,1,8.8,8.8,0,0,0-.5,1.5c-.5.5-1,.7-1.3,1.2a3.4,3.4,0,0,1-.7,1.5c-.8,1.3-1.8,2.5-2.5,3.8a8.8,8.8,0,0,0-.5,1.5,2.4,2.4,0,0,0-1,1,8.8,8.8,0,0,0-.5,1.5c-2,3.2-3.8,6.7-5.8,9.7a6.5,6.5,0,0,1-.5,1.8,10,10,0,0,0-1.7,3.2c-.3.3-.3.8-.5,1a22.1,22.1,0,0,0-2.5,4.8c-.5,1-.8,2-1.3,3a100.4,100.4,0,0,0-6,12.3c-1,2.2-2.5,4.5-3.5,6.7a20,20,0,0,1-1.5,3.8c0,.2-.5.5-.5.7l-4.3,10-1,1a60.1,60.1,0,0,1-3,7.8c-.2.5-.7.7-.7,1.2a45.3,45.3,0,0,0-2.3,5.5c-.2.5-.7,1-.7,1.3-1.8,4-3.3,7.7-5,11.2-.3.8-.3,1.5-.5,2a116.7,116.7,0,0,0-5.8,13.5l-1.7,3.5a6.5,6.5,0,0,0-.5,1.8,28,28,0,0,0-1.5,3c-.8,1.5-.8,2.5-1.5,4s-.5.5-.8,1v1.3c-.2.2-.7.7-.7,1a2.7,2.7,0,0,0-.3,1.5c-.5,1-1.5,2.2-2,3.2s-.5,2.5-1,3.8a13,13,0,0,1-1,1.5c0,.5,0,1-.2,1.2s-.5.5-.5.5,0,1-.3,1.5-.7.8-.7,1.3a2.7,2.7,0,0,0-.3,1.5l-1,1v1.2a4.3,4.3,0,0,0-.7,1,12.1,12.1,0,0,0-.5,1.8c0,.2-.5.5-.5.5s0,1-.3,1.5-.7.7-.7,1.2a8.8,8.8,0,0,0-.5,1.5c0,.3-.5.8-.8,1v1.3a3.1,3.1,0,0,1-1,1.2v1.3c-.2.2-.7.5-.7,1a8.8,8.8,0,0,0-.5,1.5c0,.5-.5.7-.8,1v1.5c-.2.2-.7.7-.7,1a2.3,2.3,0,0,0-.3,1.2c-.2.5-.5.5-.7.8s0,1-.3,1.7l-1,1v1.5c-.2.5-.7.8-1,1.3s0,1-.2,1.5-.5.5-.5.7a12.1,12.1,0,0,0-.5,1.8c-3.3,5.5-7,10.7-10.5,15.7a6.9,6.9,0,0,0-.5,1.3l-1.2,1.7c-1.2,1.8-2.4,4-1.3,6.5a3.1,3.1,0,0,0,.5,1l1.5,1.3a9.3,9.3,0,0,1-1.3,3,5,5,0,0,1-.2,1.7c0,.3-.5.6-.5.8a6.5,6.5,0,0,0-.5,1.8c0,.2-.5.5-.8.7a3.9,3.9,0,0,1-.2,1.5c0,.3-.5.8-.8,1v1.5c-.2.3-.7.5-.7,1a1.8,1.8,0,0,0-.3,1.3c-.2.5-.7.7-.7,1a2.7,2.7,0,0,0-.3,1.5c-.2.5-.7.7-1,1.2s0,1.3-.2,1.8l-.5.5a2.7,2.7,0,0,0-.3,1.5,3.1,3.1,0,0,1-1,1.2v1.3l-1,1v1.5c-.2.5-.7.7-.7,1.2a12.1,12.1,0,0,0-.5,1.8.5.5,0,0,0-.5.5c-.3.2-.3.7-.3,1.2a13,13,0,0,1-1,1.5v1.3a3.1,3.1,0,0,1-1,1.2v1.3a6.9,6.9,0,0,0-1,1.2,3.9,3.9,0,0,1-.2,1.5c0,.3-.5.8-.8,1v1.3c-.2.2-.7.5-.7,1a1.8,1.8,0,0,0-.3,1.2c-.2.5-.7.8-1,1.3a3.9,3.9,0,0,1-.2,1.5c0,.2-.5.5-.8,1v1.5l-1,1a3.9,3.9,0,0,1-.2,1.5c0,.2-.5.5-.5.5a11.7,11.7,0,0,0-.5,2c0,.2-.5.7-.8,1s0,1-.2,1.5a2.9,2.9,0,0,0-.8,1c-.2.5,0,1-.2,1.5l-.8.7a3.9,3.9,0,0,1-.2,1.5c0,.3-.5.5-.8,1v1.5c-.2,0-.5.3-.5.3s-.2,1.2-.5,2a6.9,6.9,0,0,0-1,1.2,3.9,3.9,0,0,1-.2,1.5c0,.5-.5.8-.8,1.3s0,1-.2,1.5-.5.5-.5.8a2.7,2.7,0,0,0-.3,1.5l-1,1c0,.5,0,1-.2,1.2s-.5.8-.8,1v1.5c-.2.3-.7.5-1,1v1.3a4.6,4.6,0,0,0-1,1v1c-.2.5-.7,1-1,1.7v1c-.2.3-.7.5-.7.8a2.7,2.7,0,0,0-.3,1.5c-.2.2-.7.5-.7.7a2.1,2.1,0,0,0-.3,1.3c-.2.5-.7.7-1,1.2v1.5c-.2.5-.7.8-.7,1a8.8,8.8,0,0,0-.5,1.5l-.8.8c-.2.7,0,1.2-.2,1.7a9.1,9.1,0,0,0-.8,1.3c0,.5-.3,1-.3,1.5s-.5.5-.5.7a3.9,3.9,0,0,0-.2,1.5,4.6,4.6,0,0,1-1,1c-.5,1-.5,1.5-1,2.5s-.8,1-.8,1.3c-1,2.2-2,4.2-3,6.2a7.1,7.1,0,0,0-.7,1.8,17.2,17.2,0,0,0-1.8,3.2c-.5.8-1.5,1.3-1.7,2.3a4.2,4.2,0,0,0,2.2,5.7c4.8,2,6.3-5,7.3-7.7,2.5-5.8,5-12,7.5-17.8v-1.2a16.2,16.2,0,0,0,1-1.8,2.3,2.3,0,0,1,.3-1.2c1.2-2.8,2.5-6,4-8.8,0-.2.5-.5.5-.7a6.9,6.9,0,0,1,.5-1.3,20.1,20.1,0,0,1,2.7-4.2l1.3-2.8c1.5-2.5,3-5.2,4.7-7.5s.8-2.3,1.3-3.3c3-4.5,5.7-9.2,8.5-13.7.7-.8.7-1.8,1.5-2.8,9.5-15.5,19.5-30.7,30.5-45.2,2.7-4.1,6.2-7.6,9.2-11.3.8-1,2-1.8,2.8-2.8a53.3,53.3,0,0,1,4-4.2,50.5,50.5,0,0,1,4.5-3.8c.7-.7,2-1.2,2.7-2h.8c-.3,1.5-.8,2.5-1,3.5s-.3,1-.3,1.5-.5,1-.7,1.5v1.3c-.8,2.2-1.8,5-2.8,7.2a3.4,3.4,0,0,1-.2,1.3,22.3,22.3,0,0,1-1.8,4.5,4.2,4.2,0,0,1-.5,2c-2.5,6-4.5,12.8-6.5,19,0,.8-.2,1.3-.2,1.8s-1.5,4.5-1,6.7,0,3,.2,4.3a16.7,16.7,0,0,0,5.8,5c1.7.7,3.7,0,5.2-.3a6.5,6.5,0,0,1,1.8-.2,27,27,0,0,0,2.5-1.8,6.9,6.9,0,0,0,1.7-.5c.3-.2.5-1,1-1.2,2-1.3,4-2.5,6-4l.8-.8c2-1.5,3.7-3.2,5.8-4.7V372a5.5,5.5,0,0,1,1-1.1l3-2.2a9.3,9.3,0,0,1,1.2-1.8c2.5-1.7,4.8-5.2,12.8-13l.7-.8h.1a9.4,9.4,0,0,0,.9-1.2c1-1.2,1.3-1.7,1.8-2.2s2.8-2.7,3.6-4.5a6.1,6.1,0,0,0-.1-4.6c.7-1.1-2.7-3.1-5.6-1.8h0l-.7.3c-1,.8-1.5,1.8-2.5,2.5s-1,.5-1.2,1-.3.5-.5.5c-11,10.3-13.8,13.8-17.6,16.6a5.3,5.3,0,0,0-1.2,1.5c-2.8,2-5.3,4.2-8,6.2-1,1-3.5,2-4.3,3s-.5,0-.5-.2.5-2,.8-2.8l3-7.5a146.8,146.8,0,0,1,5.5-13.8,3.9,3.9,0,0,1,.2-1.5,7.5,7.5,0,0,0,1-2,3.8,3.8,0,0,1,.3-1.7c0-.3.5-.5.5-.8a19.4,19.4,0,0,1,.5-2l.7-1.7c0-.5.3-1,.3-1.5a36.9,36.9,0,0,0,1.5-5.3,5.9,5.9,0,0,0,.2-2,11.4,11.4,0,0,0,.3-4.2c-.3-1.3.5-2.5,0-3.8s-1.3-1.7-1.5-2.5-1-2.5-2.3-3.2a4.9,4.9,0,0,0-2.7-1.5,26.1,26.1,0,0,0-6.3.2,6.9,6.9,0,0,0-1.2,1c-.8.5-1.5.5-2.3,1s-.5.5-.7.8c-2,1.5-3.8,2.7-5.5,4.2a3.8,3.8,0,0,0-1,1.3l-1.5,1.2a38.4,38.4,0,0,1-2.8,3c-5.7,6-10.7,13-15.7,20a521.6,521.6,0,0,0-30,47.1c-.3,0-.3,0-.5.2s0-.2-.3-.5.5-1.2.8-1.7a5.5,5.5,0,0,0,.2-1.8c.3-.5.8-.7.8-1a9.7,9.7,0,0,1,.5-2l.7-.7a1.8,1.8,0,0,1,.3-1.3c0-.5.5-.7.7-1v-1.7l1-1v-1.3c.3-.2.8-.5.8-.7a11.7,11.7,0,0,1,.5-2l.5-.5c.2-.5,0-1,.2-1.8s.8-.5.8-1,.2-1,.5-1.7.5-.3.5-.5a6.5,6.5,0,0,1,.5-1.8c0-.2.5-.5.5-.7a5.5,5.5,0,0,0,.2-1.8c.3-.2.8-.5.8-1s.2-1,.5-1.7.5-.5.7-.8a2.7,2.7,0,0,1,.3-1.5c0-.2.5-.5.5-.7a3.9,3.9,0,0,0,.2-1.5c.3-.5.8-.8.8-1a3.9,3.9,0,0,0,.2-1.5c.3-.5.8-.8,1-1.3v-1.2l1-1v-1.5c.3-.3.5-.3.5-.5s.3-1,.5-1.8.8-.8,1-1.3a2.7,2.7,0,0,1,.3-1.5c0-.2.5-.5.7-1v-1c.3-.5.8-.7.8-1.2a3.9,3.9,0,0,0,.2-1.5c.3-.5.8-.8,1-1.3s0-1.2.3-1.5c1.5-2.5,3.7-4.7,5.5-7,3.5-5,7.2-10,11-15.2.7-1,1.2-2,2-3.3s1.7-2,2.5-3.2.2-.8.5-1.3c11-15.2,20.5-31.7,30.5-48a22.8,22.8,0,0,1,1.8-3.5c2-3.3,3.7-6.5,5.7-9.8a6.1,6.1,0,0,0,.5-1.2c3-4.8,5.8-10,8.5-15,.3-.5.3-1,.8-1.5l4-7.5c1-1.3,1.2-2.5,2-3.8a25.6,25.6,0,0,1,2.2-4,4.4,4.4,0,0,1,.5-1.5c1-1.7,2-3.7,3-5.5a4.4,4.4,0,0,1,.5-1.5.6.6,0,0,1,.5-.5c.8-1.2,1-3,1.8-4.2a34.8,34.8,0,0,0,2-3.8c7-15.5,14.5-30.5,19.5-47.8V148a17.4,17.4,0,0,0,1.2-7.5C799.3,139.3,799.8,137.8,799.3,136.5Zm-128,257.2H671l-.2-.3c.2-.2.2-.2.2-.5l.3.3Zm41-100.3h-.5a1.5,1.5,0,0,0,.2-.8c.3,0,.3,0,.3.3Zm68.3-132.6c0,.5-.3,1-.3,1.5-1,2-1.7,4.5-2.7,6.5s-.8,2.7-1.3,4.5c-1.7,4-3.5,8.5-5.2,12.8-.5,1-1.5,2.5-2,3.7s-1.8,4.3-2.8,6.5-1.5,2.5-2,3.8c-3,7.2-6.7,14.2-10.2,21-1.3,2.2-2.3,4.5-3.5,6.5a10.4,10.4,0,0,1-.8,2c-2,3.2-3.8,6.7-5.5,10-.5.5-.5,1-.8,1.7-2.5,3.8-4.7,7.8-7,11.5a3,3,0,0,1-.5,1.5c-1.5,2.3-3,5-4.5,7.5-.2.5-.5.8-.5,1.3-2.7,4.3-5.2,8.5-7.7,12.8s-6.8,10.5-10,15.7l-.3.3-.2-.3c0-1.5.2-1,.7-1.7v-1.3a6.9,6.9,0,0,1,1-1.2v-1c.3-.5.8-1,.8-1.3a3.2,3.2,0,0,0,.2-1.2l.8-.8c.2-.5,0-.7.2-1.5a3.1,3.1,0,0,0,1-1.2c3.5-9.5,7.8-18.6,12-27.6l12-27c.5-1,1.5-2.2,2-3.2,1.5-3.8,3.3-7,5.1-10.8.5-1.2,1.5-2.2,2-3.5a73.6,73.6,0,0,1,6-11.5,5.3,5.3,0,0,1,.5-2c2.2-3.2,4-7,6-10.5.7-1,1-2.3,1.7-3.3,3.3-5,6-10,9.3-15a13,13,0,0,1,1-1.5c2.2-3.5,4.2-7,7-10,.2.3.2.3.5.3A52.7,52.7,0,0,1,780.6,160.8Z"/><path d="M841.4,339.1a4.5,4.5,0,0,0-3.8-2.2,2.5,2.5,0,0,0-1.7.5,1.8,1.8,0,0,0-.7.5c-.8.8-1.3,2-2.1,3s-2,2-3,3.2-3.5,3.8-3.5,4h.5c0,.6-2.5,2.6-3.5,3.3s-3,3.3-4.5,5c-6.5,6.3-3.3,3.5-9.8,9.3-1,.5-1.5,1.5-2.2,2.2l-5,3.8c-.5.5-1.5.7-2,1.2s-.5-.2-.8-.2c.3-4,2.5-8.5,3.8-11.5a87.2,87.2,0,0,1,8-14.8c.5-.5,1-.8,1.2-1.3s1.5-2.5,2.5-3.5.8-.5,1-.7l.8-1.5a6.5,6.5,0,0,0,1.5-1c.5-.8.7-1.8,1.2-2.8a21.5,21.5,0,0,0,3.3-6.2,12.9,12.9,0,0,0,1-3.5l-.2-1a6.3,6.3,0,0,0-5.8-4.5c-1.8,0-3,.5-4.5,2.5-3.3,2.2-5,5.5-7.3,8.7a2.4,2.4,0,0,1-1,1l-.5,1.8c-.7,1.2-2.2,2.2-3,3.5h-.5c-.5-.8-.2-2.5-.5-3.3-1.2-3.5-1.7-3.7-3.7-5.5s-1.3-1.5-3.5-2c-.5,0-1-.5-1.5-.5h-3.5c-4,0-5.5,1-8.8,3a16.6,16.6,0,0,0-2.7,1.3c-.5.2-.8,1-1.3,1.2-2.5,1.8-5,3.5-6.7,5.8-.2.4-.8.7-1.1.9h-.2l-4.5,5.2c-.5.8-1.5,1.3-2,2l-5.2,7.6c-.3.7-.3,1.2-.8,1.7-3.8,6.6-5.8,9.8-6.7,16.6q-.1,1.8-.3,3.9a13.1,13.1,0,0,0,.5,3.5c.8,1.3,1.5,3.3,2.8,4a9.7,9.7,0,0,0,2.2.8,5.3,5.3,0,0,0,2.8,1l1.5-.3h2c2.5-.5,2-1,4-1.5a23.3,23.3,0,0,0,5.7-4c4-2.7,7-6,11-9l1.5-1.7a50.9,50.9,0,0,0,6.3-6c.7-.8,2-1.5,2.7-2.8h.5a15.8,15.8,0,0,1-1.5,4.5,39.8,39.8,0,0,0-2.5,12.3,13.2,13.2,0,0,0,.8,4.7c.5,1.3,3.5,4,4.5,4.5a4.7,4.7,0,0,0,2.7.5,14.2,14.2,0,0,0,5.8-1.2c.5-.3.7-1,1.2-1.3a5.4,5.4,0,0,0,1.8-1c.7-1.2,0-.7,1.2-1.5,2.8-1.5,2.5-2.7,5-5s2.8-3.2,4.3-5,.7-.7,1-1,2.7-3.2,4-4.7,1.5-1.5,2.2-2.3c1.8-2.5,4.1-4.5,5.8-7l-.5.8a14.7,14.7,0,0,1,1-1.3c3.4-4,7.4-7.6,11-11.3.8-.7,2.8-2,2.8-3.7A2.5,2.5,0,0,0,841.4,339.1Zm-60.8,19.3c-.8,1.8-1.8,1.5-3,2.8a74.3,74.3,0,0,1-11.3,9c-2.7,1.2-2.2,2-5.5,3-.5.2-1.2,1-2,1h-.7v-.8a9.6,9.6,0,0,1,.7-4c1.2-5.8,4.5-11.7,8-16.3h.1l.7-.9c.7-1,1.2-2.5,2-3.5a39.8,39.8,0,0,1,3.6-3.5c4.8-4.5,10.2-8.4,15.6-8.6s4.8,2.5,5.8,5.8a5.3,5.3,0,0,1,.5,2C786.8,352.7,790.8,349.4,780.6,358.4Z"/><path d="M861.9,304.9c-1.3-2.8-3.5-4.3-7.5-4.3-.8.5-2,.3-2.8.8s-3,3.5-3.5,5l-.2,1.5.5,2c.7,2,4.2,4.2,7.5,4.2l1.7-.2c2.3-.5,4.8-3.5,4.8-6.8A8.7,8.7,0,0,0,861.9,304.9Zm16.7,34.5a4.9,4.9,0,0,0-3.7-2h-.1a3.7,3.7,0,0,0-1.9.7c-1,.5-1.8,2-2.5,3a38.5,38.5,0,0,1-3.5,3.5c-2.8,3.3-5.8,6.3-9,9.6l-5.8,5.5-1.5,1.7a59.9,59.9,0,0,0-5.5,4.5l-.7.8c-2.5,1.7-4.8,3.7-7.5,5.5a29.2,29.2,0,0,0-4.3,2.2l-.5-.2a2.5,2.5,0,0,1-.2-1.3l.2-1.7c.8-3,1.3-6,2.3-8.8l4.5-10.7c.2-1,1.2-2,1.5-3a49.4,49.4,0,0,1,4-7.6c.7-1.2,1-2.5,1.7-3.7a64,64,0,0,1,4-6.8c.3-.5.3-1.2.8-1.7a21.8,21.8,0,0,0,2-5v-.5a6.1,6.1,0,0,0-.5-1.8c-.8-2-2-3.2-4.5-3.2h-.8c-.7.5-1.7.5-2.5,1.2s-2,2.8-2.7,4.3a76.1,76.1,0,0,0-4.5,8.5v.7l-2.2,4.8-1.3,3c-1.8,4-3.3,8.3-4.8,12.3-.4.9-.7,1.8-1,2.7-.9,2.8-1.6,5.7-2.7,8.5l-.5,3.5a25.8,25.8,0,0,0-1.3,6.5l.5,4.3c1.5,2.7,2.8,4,6,4.7l1.3.3a9.4,9.4,0,0,0,4-1.3c2-1,3.7-1.5,5.2-2.7l9.5-7.5c1-.8,1.8-2,3-3s2.3-2.5,3.8-3.5a36.5,36.5,0,0,0,5.9-5.9l.3-.4a21,21,0,0,0,2.8-2.5l4.2-4.7c2.2-2.2,4.5-4.1,6.4-6.4a6.2,6.2,0,0,0,.9-1.2c.5-.5,1-.7,1.2-1.2l.5-2h0A2.8,2.8,0,0,0,878.6,339.4Z"/><path d="M1153.1,344.6a.5.5,0,0,0-.3-.4c-1.2-1.9-3.3-2.8-6.3-2.8h-1.2c-3,.1-4.7,2.2-5.8,4.3l-.3,2.8a6.7,6.7,0,0,0,1.2,3.1q1.8,2.7,6.3,2.7h1.1c3.1-.1,4.8-2.3,5.8-4.3l.4-2.9A8.8,8.8,0,0,0,1153.1,344.6Z"/><path d="M1120.7,343.4a10.2,10.2,0,0,0-3,.3h-2c-1.5.2-3.3,0-4.5.5h-6l-4.3.2h-2.7a10.2,10.2,0,0,0-3,.3h-108l-5.8.2h-6.5l-2.2.3-3.8-.3-8.2.6-10,.2-1.3.2h-8.7l-1.5.3-2.8-.3-2,.3h-2.2l-2,.3a49,49,0,0,1-6.8-.8c-3.5-1.2-5.2-3.3-6.2-7v-2.2c-.3-1.3,0-3.1-.5-4.3s-1.5-4.3-2.5-5l-2.5-1.3a9.6,9.6,0,0,0-2-.9h-.8a7.6,7.6,0,0,0-2.5.4,2.7,2.7,0,0,1-1.5.3c-2.7,1-5.2,3.3-7.2,5l-1.1.8c-2.5,1.9-4.4,4.2-6.7,6.2l-5.8,6c-2.2,2.8-4.7,4.8-6.7,7.5l-2.8,3-5.2,6.5c-.2.5-1,.7-1.3,1.5h-.2v-.2h-.3a11.3,11.3,0,0,1,1.6-3.3,78.7,78.7,0,0,1,3.9-7l.5-1.5q2.3-3.7,4.8-7.5l1.2-2.5,9-13c1.1-1.5,2.6-2.8,3.6-4.3s3.2-3.5,3.7-5.5l.3-1c0-2-2.1-3.5-3.3-4h-2c-.5.3-1.2.3-1.5.5s-2.5,3.5-3.3,4.8l-4.5,7.3c-.2.2-.2.7-.5,1.2l-1.5,2-.5,1.5c-3,4.7-5.5,10-8.5,15-.7,1-.7,2-1.2,3s-.8.5-.8.8l-.5,1a13.8,13.8,0,0,1-1.5,2.5,26.3,26.3,0,0,0-1.5,3.5c-2.5,3.7-4,8.2-6.5,12-1,1.5-1.5,3.7-2.2,5.5l-1,1-1,3.2-1,1.3c0,.5,0,.7-.3,1l-.5,1a5,5,0,0,0-.2,1.7,5.9,5.9,0,0,0,2,4.3,2.9,2.9,0,0,0,2,.5,6.2,6.2,0,0,0,3.5-1.5l2.5-2.3c1.7-2.5,3.2-5,5-7.2a11.7,11.7,0,0,1,1.2-2,46.1,46.1,0,0,1,2.8-3.8c.7-1,1-2,1.7-3,5.1-6.5,10.3-12.7,15.5-19l.8-.5a34.7,34.7,0,0,1,6-5.5c1-1,1.8-2.3,3-3l4.3-3c.5-.5,1-.5,1.4-1s.6.3.8.3a23.7,23.7,0,0,1-1,6.2l-.2,1.5a10.3,10.3,0,0,0,.4,2.7c1.1,3.3,5.3,7.3,7.8,9.1a26.8,26.8,0,0,0,4.8,1h3.7a7.1,7.1,0,0,0,2,.2h2.3c2.2,0,5,0,7-.2h8a10.9,10.9,0,0,1,3.2-.3h3.3l5.5-.2h4.8a9.2,9.2,0,0,1,2.9-.3h5.8a15.1,15.1,0,0,1,3-.2h5.7l.8-.2c17.5-.6,94.8-3.5,111.7-3.6h9.8l2.5.3h9a23,23,0,0,0,3.7.2l8.8.3,1.3.2c2.2,0,3.4-1.5,4.2-3l.2-2C1125.5,344.7,1123.7,343.4,1120.7,343.4Z"/></svg>